#N canvas -8 -8 1920 1037 10;
#X obj 126 78 bng 35 250 50 0 empty empty empty 17 7 0 10 -4034 -1
-1;
#X msg 225 127 stop;
#X floatatom 1027 72 5 0 0 0 - - -;
#X obj 34 63 loadbang;
#X msg 34 89 \; pd dsp 1;
#X obj 225 79 bng 35 250 50 0 empty empty empty 17 7 0 10 -258113 -1
-1;
#X obj 792 837 vsl 15 128 0 1 0 0 empty empty empty 0 -9 0 10 -13381
-1 -1 0 1;
#N canvas 0 50 450 250 (subpatch) 0;
#X array over_amp 8 float 3;
#A 0 1 0 0 0 0 0 0 0;
#X coords 0 1 8 0 200 140 1 0 0;
#X restore 770 397 graph;
#X obj 1246 311 hsl 128 15 0.85 0.99 0 0 empty empty empty -2 -8 0
10 -260097 -1 -1 0 1;
#X obj 1265 381 hsl 128 15 800 12500 0 0 empty empty empty -2 -8 0
10 -30793 -1 -1 0 1;
#X msg 1262 359 6650;
#X msg 1243 282 0.99;
#X obj 1589 261 loadbang;
#X msg 1589 287 read -resize yamaha_c4.wav organ;
#N canvas 0 22 450 278 (subpatch) 0;
#X array organ 219986 float 2;
#X coords 0 1 219986 -1 200 140 1 0 0;
#X restore 1499 493 graph;
#X obj 120 338 vsl 30 128 1 0 0 0 empty empty empty 0 -9 0 10 -159808
-1 -1 0 1;
#X obj 212 305 hsl 128 30 0 1 0 0 empty empty empty -2 -8 0 10 -233554
-1 -1 0 1;
#N canvas 0 22 450 278 (subpatch) 0;
#X array waveshape 515 float 3;
#A 0 -0.0122715 0 0.0122715 0.0245412 0.0368072 0.0490676 0.0613207
0.0735645 0.0857972 0.0980171 0.110222 0.122411 0.134581 0.14673 0.158858
0.170962 0.18304 0.19509 0.207111 0.219101 0.231058 0.24298 0.254865
0.266713 0.278519 0.290284 0.302006 0.313681 0.32531 0.33689 0.348418
0.359895 0.371317 0.382683 0.393992 0.405241 0.416429 0.427555 0.438616
0.449611 0.460538 0.471396 0.482183 0.492898 0.503538 0.514102 0.524589
0.534997 0.545325 0.55557 0.565731 0.575808 0.585797 0.595699 0.605511
0.615231 0.624859 0.634393 0.643831 0.653172 0.662415 0.671558 0.680601
0.68954 0.698376 0.707106 0.71573 0.724247 0.732654 0.740951 0.749136
0.757208 0.765167 0.77301 0.780737 0.788346 0.795836 0.803207 0.810457
0.817584 0.824589 0.831469 0.838224 0.844853 0.851355 0.857728 0.863972
0.870087 0.87607 0.881921 0.887639 0.893224 0.898674 0.903989 0.909168
0.914209 0.919113 0.923879 0.928506 0.932992 0.937339 0.941544 0.945607
0.949528 0.953306 0.95694 0.96043 0.963776 0.966976 0.970031 0.97294
0.975702 0.978317 0.980785 0.983105 0.985277 0.987301 0.989176 0.990902
0.992479 0.993907 0.995185 0.996312 0.99729 0.998118 0.998795 0.999322
0.999699 0.999925 1 0.999925 0.999699 0.999322 0.998796 0.998118 0.997291
0.996313 0.995185 0.993907 0.99248 0.990903 0.989177 0.987302 0.985278
0.983106 0.980786 0.978318 0.975702 0.97294 0.970032 0.966977 0.963776
0.960431 0.956941 0.953306 0.949529 0.945608 0.941545 0.93734 0.932993
0.928507 0.92388 0.919115 0.91421 0.909169 0.90399 0.898675 0.893225
0.88764 0.881922 0.876071 0.870088 0.863974 0.85773 0.851356 0.844855
0.838226 0.831471 0.82459 0.817586 0.810458 0.803209 0.795838 0.788348
0.780738 0.773012 0.765168 0.75721 0.749138 0.740952 0.732656 0.724248
0.715732 0.707108 0.698378 0.689542 0.680602 0.67156 0.662417 0.653174
0.643833 0.634395 0.624861 0.615233 0.605513 0.595701 0.5858 0.57581
0.565734 0.555572 0.545327 0.534999 0.524592 0.514105 0.50354 0.4929
0.482186 0.471399 0.460541 0.449613 0.438618 0.427557 0.416432 0.405243
0.393994 0.382686 0.371319 0.359897 0.348421 0.336892 0.325313 0.313684
0.302008 0.290287 0.278522 0.266715 0.254868 0.242983 0.231061 0.219104
0.207114 0.195093 0.183042 0.170964 0.158861 0.146733 0.134583 0.122413
0.110225 0.0980197 0.0857999 0.0735671 0.0613233 0.0490703 0.0368098
0.0245439 0.0122742 2.65359e-006 -0.0122689 -0.0245386 -0.0368045 -0.049065
-0.061318 -0.0735619 -0.0857946 -0.0980144 -0.110219 -0.122408 -0.134578
-0.146728 -0.158855 -0.170959 -0.183037 -0.195088 -0.207109 -0.219098
-0.231055 -0.242977 -0.254863 -0.26671 -0.278517 -0.290282 -0.302003
-0.313679 -0.325308 -0.336887 -0.348416 -0.359892 -0.371314 -0.382681
-0.393989 -0.405239 -0.416427 -0.427552 -0.438614 -0.449609 -0.460536
-0.471394 -0.482181 -0.492896 -0.503536 -0.5141 -0.524587 -0.534995
-0.545322 -0.555568 -0.565729 -0.575806 -0.585795 -0.595697 -0.605509
-0.615229 -0.624857 -0.634391 -0.643829 -0.65317 -0.662413 -0.671557
-0.680599 -0.689538 -0.698374 -0.707104 -0.715729 -0.724245 -0.732652
-0.740949 -0.749134 -0.757207 -0.765165 -0.773008 -0.780735 -0.788344
-0.795835 -0.803205 -0.810455 -0.817583 -0.824587 -0.831468 -0.838223
-0.844852 -0.851353 -0.857727 -0.863971 -0.870085 -0.876068 -0.88192
-0.887638 -0.893223 -0.898673 -0.903988 -0.909166 -0.914208 -0.919112
-0.923878 -0.928505 -0.932992 -0.937338 -0.941543 -0.945606 -0.949527
-0.953305 -0.956939 -0.960429 -0.963775 -0.966976 -0.97003 -0.972939
-0.975701 -0.978317 -0.980785 -0.983105 -0.985277 -0.987301 -0.989176
-0.990902 -0.992479 -0.993907 -0.995184 -0.996312 -0.99729 -0.998118
-0.998795 -0.999322 -0.999699 -0.999925 -1 -0.999925 -0.999699 -0.999323
-0.998796 -0.998118 -0.997291 -0.996313 -0.995185 -0.993907 -0.99248
-0.990903 -0.989177 -0.987302 -0.985278 -0.983106 -0.980786 -0.978318
-0.975703 -0.972941 -0.970032 -0.966978 -0.963777 -0.960432 -0.956942
-0.953307 -0.94953 -0.945609 -0.941545 -0.93734 -0.932994 -0.928508
-0.923881 -0.919116 -0.914212 -0.90917 -0.903991 -0.898676 -0.893226
-0.887642 -0.881923 -0.876072 -0.870089 -0.863975 -0.857731 -0.851358
-0.844856 -0.838227 -0.831472 -0.824592 -0.817587 -0.81046 -0.80321
-0.79584 -0.788349 -0.78074 -0.773013 -0.76517 -0.757212 -0.749139
-0.740954 -0.732657 -0.72425 -0.715734 -0.70711 -0.69838 -0.689544
-0.680604 -0.671562 -0.662419 -0.653176 -0.643835 -0.634397 -0.624863
-0.615235 -0.605515 -0.595703 -0.585802 -0.575812 -0.565736 -0.555574
-0.545329 -0.535002 -0.524594 -0.514107 -0.503543 -0.492902 -0.482188
-0.471401 -0.460543 -0.449616 -0.438621 -0.42756 -0.416434 -0.405246
-0.393997 -0.382688 -0.371322 -0.3599 -0.348423 -0.336895 -0.325315
-0.313687 -0.302011 -0.29029 -0.278525 -0.266718 -0.254871 -0.242985
-0.231063 -0.219106 -0.207116 -0.195095 -0.183045 -0.170967 -0.158863
-0.146736 -0.134586 -0.122416 -0.110227 -0.0980223 -0.0858025 -0.0735698
-0.061326 -0.0490729 -0.0368125 -0.0245465 -0.0122768 -5.30718e-006
0.0122662;
#X coords 0 1 515 -1 331 195 1 0 0;
#X restore 417 344 graph;
#X msg 419 204 \; waveshape sinesum 512 1;
#X msg 414 259 \; waveshape sinesum 512 1 0 0.33 0 0.2 0 0.143 0 0.111
0 0.0909 0 0.0769 0 0.0667 0 0.0588 0 0.0526;
#X obj 120 218 t b b;
#N canvas 599 389 648 448 overtone_amplitudes 0;
#X obj 61 262 tabread over_amp, f 8;
#X msg 61 238 0;
#X obj 138 112 tgl 15 0 empty empty empty 17 7 0 10 -262144 -1 -1 0
1;
#X obj 120 262 tabread over_amp, f 8;
#X obj 179 261 tabread over_amp, f 8;
#X obj 237 260 tabread over_amp, f 8;
#X obj 296 260 tabread over_amp, f 8;
#X obj 355 260 tabread over_amp, f 8;
#X obj 413 260 tabread over_amp, f 8;
#X obj 472 259 tabread over_amp, f 8;
#X msg 120 238 1;
#X msg 179 238 2;
#X msg 238 236 3;
#X msg 297 236 4;
#X msg 356 235 5;
#X msg 413 236 6;
#X msg 472 234 7;
#X msg 228 89 0;
#X obj 210 315 pack f f f f f f f f;
#X obj 210 383 outlet;
#X obj 139 134 metro 25;
#X msg 280 130 1 0 0 0 0 0 0 0;
#X obj 282 92 delay 5001;
#X obj 261 75 bng 15 250 50 0 empty empty empty 17 7 0 10 -262144 -1
-1;
#X obj 138 50 r play;
#X obj 228 50 r stop;
#X connect 0 0 18 0;
#X connect 1 0 0 0;
#X connect 2 0 20 0;
#X connect 3 0 18 1;
#X connect 4 0 18 2;
#X connect 5 0 18 3;
#X connect 6 0 18 4;
#X connect 7 0 18 5;
#X connect 8 0 18 6;
#X connect 9 0 18 7;
#X connect 10 0 3 0;
#X connect 11 0 4 0;
#X connect 12 0 5 0;
#X connect 13 0 6 0;
#X connect 14 0 7 0;
#X connect 15 0 8 0;
#X connect 16 0 9 0;
#X connect 17 0 2 0;
#X connect 18 0 19 0;
#X connect 20 0 1 0;
#X connect 20 0 10 0;
#X connect 20 0 16 0;
#X connect 20 0 15 0;
#X connect 20 0 14 0;
#X connect 20 0 13 0;
#X connect 20 0 12 0;
#X connect 20 0 11 0;
#X connect 21 0 19 0;
#X connect 22 0 21 0;
#X connect 23 0 22 0;
#X connect 24 0 2 0;
#X connect 25 0 17 0;
#X connect 25 0 23 0;
#X restore 191 516 pd overtone_amplitudes;
#X obj 775 238 loadbang;
#N canvas 237 112 1620 842 additive 0;
#X obj 62 270 *~ 256;
#X obj 45 345 *~;
#X obj 61 319 tabread~ waveshape;
#X obj 62 293 +~ 512;
#X obj 490 604 *~;
#X obj 44 213 osc~ 110;
#X obj 46 467 *~;
#X obj 75 441 line~;
#X obj 644 385 unpack f f f f f f f f;
#X obj 195 269 *~ 256;
#X obj 178 344 *~;
#X obj 194 318 tabread~ waveshape;
#X obj 195 292 +~ 512;
#X obj 177 212 osc~ 110;
#X obj 179 466 *~;
#X obj 208 440 line~;
#X obj 177 182 * 2;
#X obj 373 269 *~ 256;
#X obj 356 344 *~;
#X obj 372 318 tabread~ waveshape;
#X obj 373 292 +~ 512;
#X obj 355 212 osc~ 110;
#X obj 357 466 *~;
#X obj 386 440 line~;
#X obj 355 182 * 3;
#X obj 507 268 *~ 256;
#X obj 490 343 *~;
#X obj 506 317 tabread~ waveshape;
#X obj 507 291 +~ 512;
#X obj 489 211 osc~ 110;
#X obj 491 465 *~;
#X obj 520 439 line~;
#X obj 646 267 *~ 256;
#X obj 629 342 *~;
#X obj 645 316 tabread~ waveshape;
#X obj 646 290 +~ 512;
#X obj 628 210 osc~ 110;
#X obj 630 464 *~;
#X obj 659 438 line~;
#X obj 831 272 *~ 256;
#X obj 814 347 *~;
#X obj 830 321 tabread~ waveshape;
#X obj 831 295 +~ 512;
#X obj 813 215 osc~ 110;
#X obj 815 469 *~;
#X obj 844 443 line~;
#X obj 967 270 *~ 256;
#X obj 950 345 *~;
#X obj 966 319 tabread~ waveshape;
#X obj 967 293 +~ 512;
#X obj 949 213 osc~ 110;
#X obj 951 467 *~;
#X obj 980 441 line~;
#X obj 1103 269 *~ 256;
#X obj 1086 344 *~;
#X obj 1102 318 tabread~ waveshape;
#X obj 1103 292 +~ 512;
#X obj 1085 212 osc~ 110;
#X obj 1087 466 *~;
#X obj 1116 440 line~;
#X obj 489 181 * 4;
#X obj 628 180 * 5;
#X obj 813 185 * 6;
#X obj 949 183 * 7;
#X obj 1085 182 * 8;
#X obj 45 244 *~ 0.99;
#X obj 178 243 *~ 0.99;
#X obj 356 243 *~ 0.99;
#X obj 490 242 *~ 0.99;
#X obj 629 241 *~ 0.99;
#X obj 814 246 *~ 0.99;
#X obj 950 244 *~ 0.99;
#X obj 1086 243 *~ 0.99;
#X obj 479 83 inlet;
#X obj 610 569 inlet;
#X obj 646 363 inlet;
#X msg 75 416 \$1 0;
#X msg 208 415 \$1 0;
#X msg 386 415 \$1 0;
#X msg 520 414 \$1 0;
#X msg 659 413 \$1 0;
#X msg 844 418 \$1 0;
#X msg 980 416 \$1 0;
#X msg 1116 415 \$1 0;
#X obj 491 563 catch~ sum3;
#X obj 1086 497 throw~ sum3;
#X obj 950 498 throw~ sum3;
#X obj 815 500 throw~ sum3;
#X obj 629 495 throw~ sum3;
#X obj 490 496 throw~ sum3;
#X obj 357 496 throw~ sum3;
#X obj 178 497 throw~ sum3;
#X obj 45 497 throw~ sum3;
#X obj 491 642 s~ c3as;
#X connect 0 0 3 0;
#X connect 1 0 6 0;
#X connect 2 0 1 1;
#X connect 3 0 2 0;
#X connect 4 0 93 0;
#X connect 5 0 65 0;
#X connect 6 0 92 0;
#X connect 7 0 6 1;
#X connect 8 0 76 0;
#X connect 8 1 77 0;
#X connect 8 2 78 0;
#X connect 8 3 79 0;
#X connect 8 4 80 0;
#X connect 8 5 81 0;
#X connect 8 6 82 0;
#X connect 8 7 83 0;
#X connect 9 0 12 0;
#X connect 10 0 14 0;
#X connect 11 0 10 1;
#X connect 12 0 11 0;
#X connect 13 0 66 0;
#X connect 14 0 91 0;
#X connect 15 0 14 1;
#X connect 16 0 13 0;
#X connect 17 0 20 0;
#X connect 18 0 22 0;
#X connect 19 0 18 1;
#X connect 20 0 19 0;
#X connect 21 0 67 0;
#X connect 22 0 90 0;
#X connect 23 0 22 1;
#X connect 24 0 21 0;
#X connect 25 0 28 0;
#X connect 26 0 30 0;
#X connect 27 0 26 1;
#X connect 28 0 27 0;
#X connect 29 0 68 0;
#X connect 30 0 89 0;
#X connect 31 0 30 1;
#X connect 32 0 35 0;
#X connect 33 0 37 0;
#X connect 34 0 33 1;
#X connect 35 0 34 0;
#X connect 36 0 69 0;
#X connect 37 0 88 0;
#X connect 38 0 37 1;
#X connect 39 0 42 0;
#X connect 40 0 44 0;
#X connect 41 0 40 1;
#X connect 42 0 41 0;
#X connect 43 0 70 0;
#X connect 44 0 87 0;
#X connect 45 0 44 1;
#X connect 46 0 49 0;
#X connect 47 0 51 0;
#X connect 48 0 47 1;
#X connect 49 0 48 0;
#X connect 50 0 71 0;
#X connect 51 0 86 0;
#X connect 52 0 51 1;
#X connect 53 0 56 0;
#X connect 54 0 58 0;
#X connect 55 0 54 1;
#X connect 56 0 55 0;
#X connect 57 0 72 0;
#X connect 58 0 85 0;
#X connect 59 0 58 1;
#X connect 60 0 29 0;
#X connect 61 0 36 0;
#X connect 62 0 43 0;
#X connect 63 0 50 0;
#X connect 64 0 57 0;
#X connect 65 0 0 0;
#X connect 65 0 1 0;
#X connect 66 0 9 0;
#X connect 66 0 10 0;
#X connect 67 0 17 0;
#X connect 67 0 18 0;
#X connect 68 0 25 0;
#X connect 68 0 26 0;
#X connect 69 0 32 0;
#X connect 69 0 33 0;
#X connect 70 0 39 0;
#X connect 70 0 40 0;
#X connect 71 0 46 0;
#X connect 71 0 47 0;
#X connect 72 0 53 0;
#X connect 72 0 54 0;
#X connect 73 0 16 0;
#X connect 73 0 64 0;
#X connect 73 0 63 0;
#X connect 73 0 62 0;
#X connect 73 0 61 0;
#X connect 73 0 60 0;
#X connect 73 0 24 0;
#X connect 73 0 5 0;
#X connect 74 0 4 1;
#X connect 75 0 8 0;
#X connect 76 0 7 0;
#X connect 77 0 15 0;
#X connect 78 0 23 0;
#X connect 79 0 31 0;
#X connect 80 0 38 0;
#X connect 81 0 45 0;
#X connect 82 0 52 0;
#X connect 83 0 59 0;
#X connect 84 0 4 0;
#X restore 51 550 pd additive synthesis c3;
#X text 339 281 _organ;
#X text 46 454 _waveshape;
#X text 221 57 _to stop;
#X text 121 58 _to play;
#X text 417 315 _to draw new curves;
#X text 766 363 _to define the overtone amplitudes;
#X text 1076 311 _to adjust pitch resonance;
#X text 1027 383 _to adjust low pass filter frequency;
#X text 1523 222 _to load and visualize sample .wav file;
#X floatatom 764 72 5 0 0 0 - - -;
#X floatatom 490 73 5 0 0 0 - - -;
#X obj 735 834 vsl 15 128 0 1 0 0 empty empty empty 0 -9 0 10 -70720
-1 -1 0 1;
#X obj 676 833 vsl 15 128 0 1 0 0 empty empty empty 0 -9 0 10 -257985
-1 -1 0 1;
#N canvas 121 108 1620 842 additive 0;
#X obj 62 270 *~ 256;
#X obj 45 345 *~;
#X obj 61 319 tabread~ waveshape;
#X obj 62 293 +~ 512;
#X obj 498 653 *~;
#X obj 44 213 osc~ 110;
#X obj 46 467 *~;
#X obj 75 441 line~;
#X obj 644 385 unpack f f f f f f f f;
#X obj 195 269 *~ 256;
#X obj 178 344 *~;
#X obj 194 318 tabread~ waveshape;
#X obj 195 292 +~ 512;
#X obj 177 212 osc~ 110;
#X obj 179 466 *~;
#X obj 208 440 line~;
#X obj 177 182 * 2;
#X obj 373 269 *~ 256;
#X obj 356 344 *~;
#X obj 372 318 tabread~ waveshape;
#X obj 373 292 +~ 512;
#X obj 355 212 osc~ 110;
#X obj 357 466 *~;
#X obj 386 440 line~;
#X obj 355 182 * 3;
#X obj 507 268 *~ 256;
#X obj 490 343 *~;
#X obj 506 317 tabread~ waveshape;
#X obj 507 291 +~ 512;
#X obj 489 211 osc~ 110;
#X obj 491 465 *~;
#X obj 520 439 line~;
#X obj 646 267 *~ 256;
#X obj 629 342 *~;
#X obj 645 316 tabread~ waveshape;
#X obj 646 290 +~ 512;
#X obj 628 210 osc~ 110;
#X obj 630 464 *~;
#X obj 659 438 line~;
#X obj 831 272 *~ 256;
#X obj 814 347 *~;
#X obj 830 321 tabread~ waveshape;
#X obj 831 295 +~ 512;
#X obj 813 215 osc~ 110;
#X obj 815 469 *~;
#X obj 844 443 line~;
#X obj 967 270 *~ 256;
#X obj 950 345 *~;
#X obj 966 319 tabread~ waveshape;
#X obj 967 293 +~ 512;
#X obj 949 213 osc~ 110;
#X obj 951 467 *~;
#X obj 980 441 line~;
#X obj 1103 269 *~ 256;
#X obj 1086 344 *~;
#X obj 1102 318 tabread~ waveshape;
#X obj 1103 292 +~ 512;
#X obj 1085 212 osc~ 110;
#X obj 1087 466 *~;
#X obj 1116 440 line~;
#X obj 489 181 * 4;
#X obj 628 180 * 5;
#X obj 813 185 * 6;
#X obj 949 183 * 7;
#X obj 1085 182 * 8;
#X obj 45 244 *~ 0.99;
#X obj 178 243 *~ 0.99;
#X obj 356 243 *~ 0.99;
#X obj 490 242 *~ 0.99;
#X obj 629 241 *~ 0.99;
#X obj 814 246 *~ 0.99;
#X obj 950 244 *~ 0.99;
#X obj 1086 243 *~ 0.99;
#X obj 479 83 inlet;
#X obj 618 618 inlet;
#X obj 646 363 inlet;
#X msg 75 416 \$1 0;
#X msg 208 415 \$1 0;
#X msg 386 415 \$1 0;
#X msg 520 414 \$1 0;
#X msg 659 413 \$1 0;
#X msg 844 418 \$1 0;
#X msg 980 416 \$1 0;
#X msg 1116 415 \$1 0;
#X obj 46 496 throw~ sum2;
#X obj 178 497 throw~ sum2;
#X obj 356 497 throw~ sum2;
#X obj 490 495 throw~ sum2;
#X obj 629 495 throw~ sum2;
#X obj 814 500 throw~ sum2;
#X obj 950 498 throw~ sum2;
#X obj 1086 496 throw~ sum2;
#X obj 498 584 catch~ sum2;
#X obj 497 744 s~ c2as;
#X connect 0 0 3 0;
#X connect 1 0 6 0;
#X connect 2 0 1 1;
#X connect 3 0 2 0;
#X connect 4 0 93 0;
#X connect 5 0 65 0;
#X connect 6 0 84 0;
#X connect 7 0 6 1;
#X connect 8 0 76 0;
#X connect 8 1 77 0;
#X connect 8 2 78 0;
#X connect 8 3 79 0;
#X connect 8 4 80 0;
#X connect 8 5 81 0;
#X connect 8 6 82 0;
#X connect 8 7 83 0;
#X connect 9 0 12 0;
#X connect 10 0 14 0;
#X connect 11 0 10 1;
#X connect 12 0 11 0;
#X connect 13 0 66 0;
#X connect 14 0 85 0;
#X connect 15 0 14 1;
#X connect 16 0 13 0;
#X connect 17 0 20 0;
#X connect 18 0 22 0;
#X connect 19 0 18 1;
#X connect 20 0 19 0;
#X connect 21 0 67 0;
#X connect 22 0 86 0;
#X connect 23 0 22 1;
#X connect 24 0 21 0;
#X connect 25 0 28 0;
#X connect 26 0 30 0;
#X connect 27 0 26 1;
#X connect 28 0 27 0;
#X connect 29 0 68 0;
#X connect 30 0 87 0;
#X connect 31 0 30 1;
#X connect 32 0 35 0;
#X connect 33 0 37 0;
#X connect 34 0 33 1;
#X connect 35 0 34 0;
#X connect 36 0 69 0;
#X connect 37 0 88 0;
#X connect 38 0 37 1;
#X connect 39 0 42 0;
#X connect 40 0 44 0;
#X connect 41 0 40 1;
#X connect 42 0 41 0;
#X connect 43 0 70 0;
#X connect 44 0 89 0;
#X connect 45 0 44 1;
#X connect 46 0 49 0;
#X connect 47 0 51 0;
#X connect 48 0 47 1;
#X connect 49 0 48 0;
#X connect 50 0 71 0;
#X connect 51 0 90 0;
#X connect 52 0 51 1;
#X connect 53 0 56 0;
#X connect 54 0 58 0;
#X connect 55 0 54 1;
#X connect 56 0 55 0;
#X connect 57 0 72 0;
#X connect 58 0 91 0;
#X connect 59 0 58 1;
#X connect 60 0 29 0;
#X connect 61 0 36 0;
#X connect 62 0 43 0;
#X connect 63 0 50 0;
#X connect 64 0 57 0;
#X connect 65 0 0 0;
#X connect 65 0 1 0;
#X connect 66 0 9 0;
#X connect 66 0 10 0;
#X connect 67 0 17 0;
#X connect 67 0 18 0;
#X connect 68 0 25 0;
#X connect 68 0 26 0;
#X connect 69 0 32 0;
#X connect 69 0 33 0;
#X connect 70 0 39 0;
#X connect 70 0 40 0;
#X connect 71 0 46 0;
#X connect 71 0 47 0;
#X connect 72 0 53 0;
#X connect 72 0 54 0;
#X connect 73 0 16 0;
#X connect 73 0 64 0;
#X connect 73 0 63 0;
#X connect 73 0 62 0;
#X connect 73 0 61 0;
#X connect 73 0 60 0;
#X connect 73 0 24 0;
#X connect 73 0 5 0;
#X connect 74 0 4 1;
#X connect 75 0 8 0;
#X connect 76 0 7 0;
#X connect 77 0 15 0;
#X connect 78 0 23 0;
#X connect 79 0 31 0;
#X connect 80 0 38 0;
#X connect 81 0 45 0;
#X connect 82 0 52 0;
#X connect 83 0 59 0;
#X connect 92 0 4 0;
#X restore 49 605 pd additive synthesis c2;
#N canvas 121 108 1620 842 additive 0;
#X obj 62 270 *~ 256;
#X obj 45 345 *~;
#X obj 61 319 tabread~ waveshape;
#X obj 62 293 +~ 512;
#X obj 498 653 *~;
#X obj 44 213 osc~ 110;
#X obj 46 467 *~;
#X obj 75 441 line~;
#X obj 644 385 unpack f f f f f f f f;
#X obj 195 269 *~ 256;
#X obj 178 344 *~;
#X obj 194 318 tabread~ waveshape;
#X obj 195 292 +~ 512;
#X obj 177 212 osc~ 110;
#X obj 179 466 *~;
#X obj 208 440 line~;
#X obj 177 182 * 2;
#X obj 373 269 *~ 256;
#X obj 356 344 *~;
#X obj 372 318 tabread~ waveshape;
#X obj 373 292 +~ 512;
#X obj 355 212 osc~ 110;
#X obj 357 466 *~;
#X obj 386 440 line~;
#X obj 355 182 * 3;
#X obj 507 268 *~ 256;
#X obj 490 343 *~;
#X obj 506 317 tabread~ waveshape;
#X obj 507 291 +~ 512;
#X obj 489 211 osc~ 110;
#X obj 491 465 *~;
#X obj 520 439 line~;
#X obj 646 267 *~ 256;
#X obj 629 342 *~;
#X obj 645 316 tabread~ waveshape;
#X obj 646 290 +~ 512;
#X obj 628 210 osc~ 110;
#X obj 630 464 *~;
#X obj 659 438 line~;
#X obj 831 272 *~ 256;
#X obj 814 347 *~;
#X obj 830 321 tabread~ waveshape;
#X obj 831 295 +~ 512;
#X obj 813 215 osc~ 110;
#X obj 815 469 *~;
#X obj 844 443 line~;
#X obj 967 270 *~ 256;
#X obj 950 345 *~;
#X obj 966 319 tabread~ waveshape;
#X obj 967 293 +~ 512;
#X obj 949 213 osc~ 110;
#X obj 951 467 *~;
#X obj 980 441 line~;
#X obj 1103 269 *~ 256;
#X obj 1086 344 *~;
#X obj 1102 318 tabread~ waveshape;
#X obj 1103 292 +~ 512;
#X obj 1085 212 osc~ 110;
#X obj 1087 466 *~;
#X obj 1116 440 line~;
#X obj 489 181 * 4;
#X obj 628 180 * 5;
#X obj 813 185 * 6;
#X obj 949 183 * 7;
#X obj 1085 182 * 8;
#X obj 45 244 *~ 0.99;
#X obj 178 243 *~ 0.99;
#X obj 356 243 *~ 0.99;
#X obj 490 242 *~ 0.99;
#X obj 629 241 *~ 0.99;
#X obj 814 246 *~ 0.99;
#X obj 950 244 *~ 0.99;
#X obj 1086 243 *~ 0.99;
#X obj 479 83 inlet;
#X obj 571 615 inlet;
#X obj 646 363 inlet;
#X msg 75 416 \$1 0;
#X msg 208 414 \$1 0;
#X msg 385 415 \$1 0;
#X msg 520 414 \$1 0;
#X msg 658 413 \$1 0;
#X msg 844 418 \$1 0;
#X msg 980 416 \$1 0;
#X msg 1116 415 \$1 0;
#X obj 45 497 throw~ sum1;
#X obj 178 497 throw~ sum1;
#X obj 356 497 throw~ sum1;
#X obj 490 496 throw~ sum1;
#X obj 629 495 throw~ sum1;
#X obj 814 500 throw~ sum1;
#X obj 950 498 throw~ sum1;
#X obj 1086 497 throw~ sum1;
#X obj 498 584 catch~ sum1;
#X obj 497 744 s~ c1as;
#X connect 0 0 3 0;
#X connect 1 0 6 0;
#X connect 2 0 1 1;
#X connect 3 0 2 0;
#X connect 4 0 93 0;
#X connect 5 0 65 0;
#X connect 6 0 84 0;
#X connect 7 0 6 1;
#X connect 8 0 76 0;
#X connect 8 1 77 0;
#X connect 8 2 78 0;
#X connect 8 3 79 0;
#X connect 8 4 80 0;
#X connect 8 5 81 0;
#X connect 8 6 82 0;
#X connect 8 7 83 0;
#X connect 9 0 12 0;
#X connect 10 0 14 0;
#X connect 11 0 10 1;
#X connect 12 0 11 0;
#X connect 13 0 66 0;
#X connect 14 0 85 0;
#X connect 15 0 14 1;
#X connect 16 0 13 0;
#X connect 17 0 20 0;
#X connect 18 0 22 0;
#X connect 19 0 18 1;
#X connect 20 0 19 0;
#X connect 21 0 67 0;
#X connect 22 0 86 0;
#X connect 23 0 22 1;
#X connect 24 0 21 0;
#X connect 25 0 28 0;
#X connect 26 0 30 0;
#X connect 27 0 26 1;
#X connect 28 0 27 0;
#X connect 29 0 68 0;
#X connect 30 0 87 0;
#X connect 31 0 30 1;
#X connect 32 0 35 0;
#X connect 33 0 37 0;
#X connect 34 0 33 1;
#X connect 35 0 34 0;
#X connect 36 0 69 0;
#X connect 37 0 88 0;
#X connect 38 0 37 1;
#X connect 39 0 42 0;
#X connect 40 0 44 0;
#X connect 41 0 40 1;
#X connect 42 0 41 0;
#X connect 43 0 70 0;
#X connect 44 0 89 0;
#X connect 45 0 44 1;
#X connect 46 0 49 0;
#X connect 47 0 51 0;
#X connect 48 0 47 1;
#X connect 49 0 48 0;
#X connect 50 0 71 0;
#X connect 51 0 90 0;
#X connect 52 0 51 1;
#X connect 53 0 56 0;
#X connect 54 0 58 0;
#X connect 55 0 54 1;
#X connect 56 0 55 0;
#X connect 57 0 72 0;
#X connect 58 0 91 0;
#X connect 59 0 58 1;
#X connect 60 0 29 0;
#X connect 61 0 36 0;
#X connect 62 0 43 0;
#X connect 63 0 50 0;
#X connect 64 0 57 0;
#X connect 65 0 0 0;
#X connect 65 0 1 0;
#X connect 66 0 9 0;
#X connect 66 0 10 0;
#X connect 67 0 17 0;
#X connect 67 0 18 0;
#X connect 68 0 25 0;
#X connect 68 0 26 0;
#X connect 69 0 32 0;
#X connect 69 0 33 0;
#X connect 70 0 39 0;
#X connect 70 0 40 0;
#X connect 71 0 46 0;
#X connect 71 0 47 0;
#X connect 72 0 53 0;
#X connect 72 0 54 0;
#X connect 73 0 16 0;
#X connect 73 0 64 0;
#X connect 73 0 63 0;
#X connect 73 0 62 0;
#X connect 73 0 61 0;
#X connect 73 0 60 0;
#X connect 73 0 24 0;
#X connect 73 0 5 0;
#X connect 74 0 4 1;
#X connect 75 0 8 0;
#X connect 76 0 7 0;
#X connect 77 0 15 0;
#X connect 78 0 23 0;
#X connect 79 0 31 0;
#X connect 80 0 38 0;
#X connect 81 0 45 0;
#X connect 82 0 52 0;
#X connect 83 0 59 0;
#X connect 92 0 4 0;
#X restore 49 653 pd additive synthesis c1;
#N canvas 203 98 619 701 karplus_c3 0;
#X obj 39 283 noise~;
#X obj 73 316 *~;
#X obj 89 282 vline~;
#X floatatom 180 161 5 0 0 0 - - -;
#X obj 123 306 *~ 0.99;
#X obj 180 72 t b f;
#X obj 180 114 /;
#X msg 181 92 1;
#X obj 180 137 * 1000;
#X obj 103 351 lop~ 10000;
#X obj 35 40 t b f;
#X msg 35 210 0 0 \, 1 1 0 \, 0 2 1;
#X obj 88 508 *~;
#X obj 129 508 *~;
#X obj 35 5 inlet;
#X obj 162 275 inlet;
#X obj 186 331 inlet;
#X obj 277 262 inlet;
#X obj 280 360 vsl 15 128 1 0 0 0 empty empty empty 0 -9 0 10 -262144
-1 -1 0 1;
#X msg 279 288 1 \$1;
#X obj 279 314 -;
#X obj 369 263 inlet;
#X msg 369 291 1 \$1;
#X obj 369 317 -;
#X obj 30 376 delwrite~ karplus_c3 1000;
#X obj 180 186 delread4~ karplus_c3;
#X obj 418 199 r play;
#X obj 163 551 s~ c3kpr;
#X obj 88 551 s~ c3kpn;
#X msg 419 219 0.75;
#X connect 0 0 1 0;
#X connect 1 0 12 0;
#X connect 1 0 24 0;
#X connect 2 0 1 1;
#X connect 3 0 25 0;
#X connect 4 0 9 0;
#X connect 5 0 7 0;
#X connect 5 1 6 1;
#X connect 6 0 8 0;
#X connect 7 0 6 0;
#X connect 8 0 3 0;
#X connect 9 0 24 0;
#X connect 10 0 11 0;
#X connect 10 1 5 0;
#X connect 11 0 2 0;
#X connect 12 0 28 0;
#X connect 13 0 27 0;
#X connect 14 0 10 0;
#X connect 15 0 4 1;
#X connect 16 0 9 1;
#X connect 17 0 19 0;
#X connect 18 0 12 1;
#X connect 18 0 13 1;
#X connect 19 0 20 0;
#X connect 20 0 18 0;
#X connect 21 0 22 0;
#X connect 22 0 23 0;
#X connect 23 0 18 0;
#X connect 25 0 4 0;
#X connect 25 0 13 0;
#X connect 26 0 29 0;
#X connect 29 0 18 0;
#X restore 1225 464 pd karplus_c3;
#N canvas 203 98 619 701 karplus_c2 0;
#X obj 39 283 noise~;
#X obj 73 316 *~;
#X obj 89 282 vline~;
#X floatatom 180 161 5 0 0 0 - - -;
#X obj 123 306 *~ 0.99;
#X obj 180 72 t b f;
#X obj 180 114 /;
#X msg 181 92 1;
#X obj 180 137 * 1000;
#X obj 103 351 lop~ 10000;
#X obj 35 40 t b f;
#X msg 35 210 0 0 \, 1 1 0 \, 0 2 1;
#X obj 88 508 *~;
#X obj 129 508 *~;
#X obj 35 5 inlet;
#X obj 162 275 inlet;
#X obj 186 331 inlet;
#X obj 277 262 inlet;
#X obj 280 360 vsl 15 128 1 0 0 0 empty empty empty 0 -9 0 10 -262144
-1 -1 0 1;
#X msg 279 288 1 \$1;
#X obj 279 314 -;
#X obj 369 263 inlet;
#X msg 369 291 1 \$1;
#X obj 369 317 -;
#X obj 30 376 delwrite~ karplus_c2 1000;
#X obj 180 186 delread4~ karplus_c2;
#X obj 418 199 r play;
#X obj 162 551 s~ c2kpr;
#X obj 89 551 s~ c2kpn;
#X msg 419 219 0.75;
#X connect 0 0 1 0;
#X connect 1 0 12 0;
#X connect 1 0 24 0;
#X connect 2 0 1 1;
#X connect 3 0 25 0;
#X connect 4 0 9 0;
#X connect 5 0 7 0;
#X connect 5 1 6 1;
#X connect 6 0 8 0;
#X connect 7 0 6 0;
#X connect 8 0 3 0;
#X connect 9 0 24 0;
#X connect 10 0 11 0;
#X connect 10 1 5 0;
#X connect 11 0 2 0;
#X connect 12 0 28 0;
#X connect 13 0 27 0;
#X connect 14 0 10 0;
#X connect 15 0 4 1;
#X connect 16 0 9 1;
#X connect 17 0 19 0;
#X connect 18 0 12 1;
#X connect 18 0 13 1;
#X connect 19 0 20 0;
#X connect 20 0 18 0;
#X connect 21 0 22 0;
#X connect 22 0 23 0;
#X connect 23 0 18 0;
#X connect 25 0 4 0;
#X connect 25 0 13 0;
#X connect 26 0 29 0;
#X connect 29 0 18 0;
#X restore 1226 515 pd karplus_c2;
#N canvas 316 124 619 701 karplus_c1 0;
#X obj 39 283 noise~;
#X obj 73 316 *~;
#X obj 89 282 vline~;
#X floatatom 180 161 5 0 0 0 - - -;
#X obj 123 306 *~ 0.99;
#X obj 180 72 t b f;
#X obj 180 114 /;
#X msg 181 92 1;
#X obj 180 137 * 1000;
#X obj 103 351 lop~ 10000;
#X obj 35 40 t b f;
#X msg 35 210 0 0 \, 1 1 0 \, 0 2 1;
#X obj 88 508 *~;
#X obj 129 508 *~;
#X obj 35 5 inlet;
#X obj 162 275 inlet;
#X obj 186 331 inlet;
#X obj 277 262 inlet;
#X obj 280 360 vsl 15 128 1 0 0 0 empty empty empty 0 -9 0 10 -262144
-1 -1 0 1;
#X msg 279 288 1 \$1;
#X obj 279 314 -;
#X obj 369 263 inlet;
#X msg 369 291 1 \$1;
#X obj 369 317 -;
#X obj 180 186 delread4~ karplus_c1;
#X obj 30 376 delwrite~ karplus_c1 1000;
#X obj 162 551 s~ c1kpr;
#X obj 88 551 s~ c1kpn;
#X obj 418 199 r play;
#X msg 419 219 0.75;
#X connect 0 0 1 0;
#X connect 1 0 12 0;
#X connect 1 0 25 0;
#X connect 2 0 1 1;
#X connect 3 0 24 0;
#X connect 4 0 9 0;
#X connect 5 0 7 0;
#X connect 5 1 6 1;
#X connect 6 0 8 0;
#X connect 7 0 6 0;
#X connect 8 0 3 0;
#X connect 9 0 25 0;
#X connect 10 0 11 0;
#X connect 10 1 5 0;
#X connect 11 0 2 0;
#X connect 12 0 27 0;
#X connect 13 0 26 0;
#X connect 14 0 10 0;
#X connect 15 0 4 1;
#X connect 16 0 9 1;
#X connect 17 0 19 0;
#X connect 18 0 12 1;
#X connect 18 0 13 1;
#X connect 19 0 20 0;
#X connect 20 0 18 0;
#X connect 21 0 22 0;
#X connect 22 0 23 0;
#X connect 23 0 18 0;
#X connect 24 0 4 0;
#X connect 24 0 13 0;
#X connect 28 0 29 0;
#X connect 29 0 18 0;
#X restore 1227 566 pd karplus_c1;
#X obj 1589 319 soundfiler;
#N canvas 134 158 574 637 sample_c3 0;
#X obj 101 470 line~;
#X obj 102 304 f;
#X obj 100 426 pack f f;
#X obj 162 322 samplerate~;
#X obj 162 297 loadbang;
#X obj 145 347 /;
#X obj 100 325 t f f;
#X msg 100 448 0 \, \$1 \$2;
#X obj 145 371 * 1000;
#X obj 145 396 * 1;
#X floatatom 199 142 5 0 0 0 - - -;
#X obj 199 166 t b f;
#X obj 199 218 /;
#X floatatom 199 241 5 0 0 0 - - -;
#X obj 199 264 t b f;
#X obj 102 491 tabread4~ organ;
#X floatatom 199 196 5 0 0 0 - - -;
#X obj 103 554 *~;
#X obj 75 56 inlet;
#X obj 201 524 inlet;
#X obj 104 520 *~ 0.8;
#X obj 117 56 inlet;
#X msg 244 166 261.63;
#X obj 195 116 s c4;
#X obj 244 145 r c4;
#X obj 103 580 s~ c3s;
#X connect 0 0 15 0;
#X connect 1 0 6 0;
#X connect 2 0 7 0;
#X connect 3 0 5 1;
#X connect 4 0 3 0;
#X connect 5 0 8 0;
#X connect 6 0 2 0;
#X connect 6 1 5 0;
#X connect 7 0 0 0;
#X connect 8 0 9 0;
#X connect 9 0 2 1;
#X connect 10 0 11 0;
#X connect 11 0 16 0;
#X connect 11 1 12 1;
#X connect 12 0 13 0;
#X connect 13 0 14 0;
#X connect 14 0 1 0;
#X connect 14 1 9 1;
#X connect 15 0 20 0;
#X connect 16 0 12 0;
#X connect 17 0 25 0;
#X connect 18 0 10 0;
#X connect 19 0 17 1;
#X connect 20 0 17 0;
#X connect 21 0 1 1;
#X connect 21 0 23 0;
#X connect 22 0 16 0;
#X connect 24 0 22 0;
#X restore 1555 367 pd sample_c3;
#N canvas 134 158 574 637 sample_c2 0;
#X obj 101 470 line~;
#X obj 102 304 f;
#X obj 100 426 pack f f;
#X obj 162 322 samplerate~;
#X obj 162 297 loadbang;
#X obj 145 347 /;
#X obj 100 325 t f f;
#X msg 100 448 0 \, \$1 \$2;
#X obj 145 371 * 1000;
#X obj 145 396 * 1;
#X floatatom 199 142 5 0 0 0 - - -;
#X obj 199 166 t b f;
#X obj 199 218 /;
#X floatatom 199 241 5 0 0 0 - - -;
#X obj 199 264 t b f;
#X obj 102 491 tabread4~ organ;
#X floatatom 199 196 5 0 0 0 - - -;
#X obj 103 554 *~;
#X obj 75 56 inlet;
#X obj 201 524 inlet;
#X obj 104 520 *~ 0.8;
#X obj 117 56 inlet;
#X msg 244 166 261.63;
#X obj 103 580 s~ c2s;
#X obj 244 145 r c4;
#X obj 195 116 s c4;
#X connect 0 0 15 0;
#X connect 1 0 6 0;
#X connect 2 0 7 0;
#X connect 3 0 5 1;
#X connect 4 0 3 0;
#X connect 5 0 8 0;
#X connect 6 0 2 0;
#X connect 6 1 5 0;
#X connect 7 0 0 0;
#X connect 8 0 9 0;
#X connect 9 0 2 1;
#X connect 10 0 11 0;
#X connect 11 0 16 0;
#X connect 11 1 12 1;
#X connect 12 0 13 0;
#X connect 13 0 14 0;
#X connect 14 0 1 0;
#X connect 14 1 9 1;
#X connect 15 0 20 0;
#X connect 16 0 12 0;
#X connect 17 0 23 0;
#X connect 18 0 10 0;
#X connect 19 0 17 1;
#X connect 20 0 17 0;
#X connect 21 0 1 1;
#X connect 21 0 25 0;
#X connect 22 0 16 0;
#X connect 24 0 22 0;
#X restore 1555 415 pd sample_c2;
#N canvas 134 158 574 637 sample_c1 0;
#X obj 101 470 line~;
#X obj 102 304 f;
#X obj 100 426 pack f f;
#X obj 162 322 samplerate~;
#X obj 162 297 loadbang;
#X obj 145 347 /;
#X obj 100 325 t f f;
#X msg 100 448 0 \, \$1 \$2;
#X obj 145 371 * 1000;
#X obj 145 396 * 1;
#X floatatom 199 142 5 0 0 0 - - -;
#X obj 199 166 t b f;
#X obj 199 218 /;
#X floatatom 199 241 5 0 0 0 - - -;
#X obj 199 264 t b f;
#X obj 102 491 tabread4~ organ;
#X floatatom 199 196 5 0 0 0 - - -;
#X obj 103 554 *~;
#X obj 75 56 inlet;
#X obj 201 524 inlet;
#X obj 104 520 *~ 0.8;
#X obj 117 56 inlet;
#X msg 244 166 261.63;
#X obj 195 116 s c4;
#X obj 244 145 r c4;
#X obj 103 580 s~ c1s;
#X connect 0 0 15 0;
#X connect 1 0 6 0;
#X connect 2 0 7 0;
#X connect 3 0 5 1;
#X connect 4 0 3 0;
#X connect 5 0 8 0;
#X connect 6 0 2 0;
#X connect 6 1 5 0;
#X connect 7 0 0 0;
#X connect 8 0 9 0;
#X connect 9 0 2 1;
#X connect 10 0 11 0;
#X connect 11 0 16 0;
#X connect 11 1 12 1;
#X connect 12 0 13 0;
#X connect 13 0 14 0;
#X connect 14 0 1 0;
#X connect 14 1 9 1;
#X connect 15 0 20 0;
#X connect 16 0 12 0;
#X connect 17 0 25 0;
#X connect 18 0 10 0;
#X connect 19 0 17 1;
#X connect 20 0 17 0;
#X connect 21 0 1 1;
#X connect 21 0 23 0;
#X connect 22 0 16 0;
#X connect 24 0 22 0;
#X restore 1556 461 pd sample_c1;
#X msg 776 263 \; over_amp 0 1 0 0 0 0 0 0 0;
#X obj 835 238 r stop;
#X obj 1243 259 r play;
#X obj 1642 347 r mix_organ;
#X obj 1534 339 r c3_hz;
#X obj 1533 391 r c2_hz;
#X obj 1532 437 r c1_hz;
#X obj 1262 338 r play;
#X obj 1281 414 r mix_harp;
#X obj 1301 437 r mix_organ;
#X obj 1192 435 r c3_hz;
#X obj 1189 491 r c2_hz;
#X obj 1189 537 r c1_hz;
#X obj 120 197 r play;
#X obj 209 343 s mix_organ;
#X obj 126 130 s play;
#X obj 225 151 s stop;
#X obj 130 492 s mix_harp;
#X obj 51 513 r c3_hz;
#X obj 49 578 r c2_hz;
#X obj 49 629 r c1_hz;
#X obj 490 94 s c1_hz;
#X obj 764 93 s c2_hz;
#X obj 1027 93 s c3_hz;
#N canvas 111 90 654 760 play_counterpoint_1_Abm 0;
#X obj 85 136 cyclone/midiparse;
#X obj 85 164 unpack;
#X obj 85 306 mtof;
#X floatatom 85 340 5 0 0 0 - - -;
#X obj 85 239 makenote;
#X obj 130 268 moses 1;
#X obj 85 382 outlet;
#X msg 183 444 0 5000;
#X obj 85 199 t f f;
#X obj 169 322 / 0;
#X obj 169 471 line~;
#X obj 184 248 sel 63;
#X obj 85 110 cyclone/seq counterpoint_1_a.mid;
#X obj 83 60 r play;
#X obj 186 61 r stop;
#X obj 183 417 r stop;
#X obj 170 500 s~ ramp_c1;
#X msg 169 387 \$1 50;
#X msg 184 286 317.5;
#X connect 0 0 1 0;
#X connect 1 0 8 0;
#X connect 1 1 4 1;
#X connect 2 0 3 0;
#X connect 3 0 6 0;
#X connect 4 0 2 0;
#X connect 4 1 5 0;
#X connect 5 1 9 0;
#X connect 7 0 10 0;
#X connect 8 0 4 0;
#X connect 8 1 11 0;
#X connect 9 0 17 0;
#X connect 10 0 16 0;
#X connect 11 0 18 0;
#X connect 12 0 0 0;
#X connect 13 0 12 0;
#X connect 14 0 12 0;
#X connect 15 0 7 0;
#X connect 17 0 10 0;
#X connect 18 0 9 1;
#X restore 490 47 pd play_counterpoint_1_Abm;
#N canvas 862 114 654 763 play_counterpoint_2_Abm 0;
#X obj 108 164 cyclone/midiparse;
#X obj 108 192 unpack;
#X obj 108 334 mtof;
#X floatatom 108 368 5 0 0 0 - - -;
#X obj 108 267 makenote;
#X obj 153 296 moses 1;
#X obj 108 410 outlet;
#X msg 206 472 0 5000;
#X obj 108 138 cyclone/seq counterpoint_2_a.mid;
#X obj 207 276 sel 56;
#X obj 108 227 t f f;
#X obj 192 350 / 0;
#X obj 192 503 line~;
#X obj 106 88 r play;
#X obj 209 89 r stop;
#X obj 206 445 r stop;
#X obj 192 534 s~ ramp_c2;
#X msg 192 415 \$1 50;
#X msg 207 314 317.5;
#X connect 0 0 1 0;
#X connect 1 0 10 0;
#X connect 1 1 4 1;
#X connect 2 0 3 0;
#X connect 3 0 6 0;
#X connect 4 0 2 0;
#X connect 4 1 5 0;
#X connect 5 1 11 0;
#X connect 7 0 12 0;
#X connect 8 0 0 0;
#X connect 9 0 18 0;
#X connect 10 0 4 0;
#X connect 10 1 9 0;
#X connect 11 0 17 0;
#X connect 12 0 16 0;
#X connect 13 0 8 0;
#X connect 14 0 8 0;
#X connect 15 0 7 0;
#X connect 17 0 12 0;
#X connect 18 0 11 1;
#X restore 764 46 pd play_counterpoint_2_Abm;
#N canvas 586 15 654 762 play_counterpoint_3_Abm 0;
#X obj 108 164 cyclone/midiparse;
#X obj 108 192 unpack;
#X obj 108 263 mtof;
#X floatatom 108 297 5 0 0 0 - - -;
#X obj 108 219 makenote;
#X obj 170 253 moses 1;
#X obj 108 339 outlet;
#X obj 108 138 cyclone/seq counterpoint_3_a.mid;
#X msg 198 365 0 5000;
#X obj 186 392 line~;
#X obj 107 105 r play;
#X obj 208 104 r stop;
#X obj 198 338 r stop;
#X obj 187 420 s~ ramp_c3;
#X msg 186 308 \$1 50;
#X obj 186 281 / 317.5;
#X connect 0 0 1 0;
#X connect 1 0 4 0;
#X connect 1 1 4 1;
#X connect 2 0 3 0;
#X connect 3 0 6 0;
#X connect 4 0 2 0;
#X connect 4 1 5 0;
#X connect 5 1 15 0;
#X connect 7 0 0 0;
#X connect 8 0 9 0;
#X connect 9 0 13 0;
#X connect 10 0 7 0;
#X connect 11 0 7 0;
#X connect 12 0 8 0;
#X connect 14 0 9 0;
#X connect 15 0 14 0;
#X restore 1027 46 pd play_counterpoint_3_Abm;
#X text 1187 229 _to adjust KPS parameters;
#X obj 604 832 vsl 25 128 0 1 0 0 empty empty empty 0 -9 0 10 -258113
-1 -1 0 1;
#X obj 673 637 vsl 45 128 0 1 0 0 empty empty empty 0 -9 0 10 -159808
-1 -1 7849 1;
#X obj 673 587 loadbang;
#N canvas 114 40 1613 740 mixer 0;
#X obj 789 550 dac~;
#X obj 983 448 *~;
#X obj 1020 448 *~;
#X obj 1057 450 *~;
#X obj 1098 449 *~;
#X obj 746 441 *~;
#X obj 783 441 *~;
#X obj 820 443 *~;
#X obj 861 442 *~;
#X obj 520 443 *~;
#X obj 557 443 *~;
#X obj 594 445 *~;
#X obj 635 444 *~;
#X obj 187 181 tgl 15 0 empty empty empty 17 7 0 10 -262144 -1 -1 0
1;
#X obj 521 257 r~ c1kpn;
#X obj 556 280 r~ c1kpr;
#X obj 594 302 r~ c1s;
#X obj 636 323 r~ c1as;
#X obj 643 352 r~ ramp_c1;
#X obj 746 266 r~ c2kpn;
#X obj 782 289 r~ c2kpr;
#X obj 819 311 r~ c2s;
#X obj 861 332 r~ c2as;
#X obj 868 361 r~ ramp_c2;
#X obj 984 271 r~ c3kpn;
#X obj 1019 294 r~ c3kpr;
#X obj 1057 316 r~ c3s;
#X obj 1099 336 r~ c3as;
#X obj 1107 363 r~ ramp_c3;
#X obj 187 71 r play;
#X obj 187 208 metro 25;
#X obj 104 345 snapshot~;
#X obj 121 240 r~ ramp_c1;
#X obj 206 241 r~ ramp_c2;
#X obj 283 242 r~ ramp_c3;
#X obj 188 345 snapshot~;
#X obj 265 348 snapshot~;
#X msg 187 151 1;
#X obj 245 71 r stop;
#X msg 246 150 0;
#X obj 246 128 delay 5001;
#X obj 245 96 bng 15 250 50 0 empty empty empty 17 7 0 10 -262144 -1
-1;
#X obj 172 417 +;
#X obj 208 442 +;
#X obj 644 404 *~;
#X obj 868 412 *~;
#X obj 1108 420 *~;
#X obj 627 104 inlet;
#X obj 127 367 outlet;
#X obj 197 368 outlet;
#X obj 269 372 outlet;
#X obj 70 472 outlet;
#X obj 1123 394 r master;
#X obj 627 131 s master;
#X obj 883 388 r master;
#X obj 659 379 r master;
#X obj 282 296 *~ 1;
#X obj 206 303 *~ 1;
#X obj 120 299 *~ 1;
#X connect 1 0 0 0;
#X connect 2 0 0 0;
#X connect 2 0 0 1;
#X connect 3 0 0 0;
#X connect 3 0 0 1;
#X connect 4 0 0 0;
#X connect 4 0 0 1;
#X connect 5 0 0 0;
#X connect 6 0 0 0;
#X connect 6 0 0 1;
#X connect 7 0 0 0;
#X connect 7 0 0 1;
#X connect 8 0 0 0;
#X connect 8 0 0 1;
#X connect 9 0 0 0;
#X connect 10 0 0 0;
#X connect 10 0 0 1;
#X connect 11 0 0 0;
#X connect 11 0 0 1;
#X connect 12 0 0 0;
#X connect 12 0 0 1;
#X connect 13 0 30 0;
#X connect 14 0 9 0;
#X connect 15 0 10 0;
#X connect 16 0 11 0;
#X connect 17 0 12 0;
#X connect 18 0 44 0;
#X connect 19 0 5 0;
#X connect 20 0 6 0;
#X connect 21 0 7 0;
#X connect 22 0 8 0;
#X connect 23 0 45 0;
#X connect 24 0 1 0;
#X connect 25 0 2 0;
#X connect 26 0 3 0;
#X connect 27 0 4 0;
#X connect 28 0 46 0;
#X connect 29 0 37 0;
#X connect 30 0 31 0;
#X connect 30 0 36 0;
#X connect 30 0 35 0;
#X connect 31 0 48 0;
#X connect 31 0 42 0;
#X connect 32 0 58 0;
#X connect 33 0 57 0;
#X connect 34 0 56 0;
#X connect 35 0 42 1;
#X connect 35 0 49 0;
#X connect 36 0 50 0;
#X connect 36 0 43 1;
#X connect 37 0 13 0;
#X connect 38 0 41 0;
#X connect 39 0 13 0;
#X connect 40 0 39 0;
#X connect 41 0 40 0;
#X connect 42 0 43 0;
#X connect 43 0 51 0;
#X connect 44 0 12 1;
#X connect 44 0 11 1;
#X connect 44 0 10 1;
#X connect 44 0 9 1;
#X connect 45 0 8 1;
#X connect 45 0 7 1;
#X connect 45 0 6 1;
#X connect 45 0 5 1;
#X connect 46 0 4 1;
#X connect 46 0 3 1;
#X connect 46 0 2 1;
#X connect 46 0 1 1;
#X connect 47 0 53 0;
#X connect 52 0 46 1;
#X connect 54 0 45 1;
#X connect 55 0 44 1;
#X connect 56 0 36 0;
#X connect 57 0 35 0;
#X connect 58 0 31 0;
#X restore 673 783 pd mixer;
#X text 578 689 _MASTER VOLUME;
#X text 572 971 _all voices;
#X text 660 972 _voice1;
#X text 719 971 _voice2;
#X text 774 973 _voice3;
#X text 36 12 _CYCLONE LIBRARY REQUIRED;
#X obj 745 588 r play;
#X text 413 241 _square wave;
#X text 416 188 _sine wave;
#X msg 120 243 0;
#X msg 171 243 0;
#X text 27 338 _"harpsichord";
#X text 212 282 _"harpsichord";
#X msg 673 611 0.618;
#X connect 0 0 61 0;
#X connect 1 0 62 0;
#X connect 2 0 69 0;
#X connect 3 0 4 0;
#X connect 5 0 1 0;
#X connect 8 0 39 1;
#X connect 8 0 40 1;
#X connect 8 0 41 1;
#X connect 9 0 39 2;
#X connect 9 0 40 2;
#X connect 9 0 41 2;
#X connect 10 0 9 0;
#X connect 11 0 8 0;
#X connect 12 0 13 0;
#X connect 13 0 42 0;
#X connect 15 0 23 1;
#X connect 15 0 37 1;
#X connect 15 0 38 1;
#X connect 15 0 63 0;
#X connect 16 0 60 0;
#X connect 20 0 87 0;
#X connect 20 1 88 0;
#X connect 21 0 23 2;
#X connect 21 0 37 2;
#X connect 21 0 38 2;
#X connect 22 0 46 0;
#X connect 33 0 68 0;
#X connect 34 0 67 0;
#X connect 42 0 43 1;
#X connect 42 0 44 1;
#X connect 42 0 45 1;
#X connect 47 0 46 0;
#X connect 48 0 11 0;
#X connect 49 0 43 2;
#X connect 49 0 44 2;
#X connect 49 0 45 2;
#X connect 50 0 43 0;
#X connect 51 0 44 0;
#X connect 52 0 45 0;
#X connect 53 0 10 0;
#X connect 54 0 39 3;
#X connect 54 0 40 3;
#X connect 54 0 41 3;
#X connect 55 0 39 4;
#X connect 55 0 40 4;
#X connect 55 0 41 4;
#X connect 56 0 39 0;
#X connect 57 0 40 0;
#X connect 58 0 41 0;
#X connect 59 0 20 0;
#X connect 64 0 23 0;
#X connect 65 0 37 0;
#X connect 66 0 38 0;
#X connect 70 0 34 0;
#X connect 71 0 33 0;
#X connect 72 0 2 0;
#X connect 75 0 77 0;
#X connect 76 0 91 0;
#X connect 77 0 74 0;
#X connect 77 1 36 0;
#X connect 77 2 35 0;
#X connect 77 3 6 0;
#X connect 84 0 91 0;
#X connect 87 0 15 0;
#X connect 88 0 16 0;
#X connect 91 0 75 0;
